<mxfile host="app.diagrams.net" agent="Mozilla/5.0 (Windows NT 10.0; Win64; x64) AppleWebKit/537.36 (KHTML, like Gecko) Chrome/134.0.0.0 Safari/537.36" version="26.2.8">
  <diagram name="Page-1" id="e4IaQhva98xTvDJxt3OK">
    <mxGraphModel dx="985" dy="536" grid="1" gridSize="10" guides="1" tooltips="1" connect="1" arrows="1" fold="1" page="1" pageScale="1" pageWidth="827" pageHeight="1169" math="0" shadow="0">
      <root>
        <mxCell id="0" />
        <mxCell id="1" parent="0" />
        <mxCell id="2jRSJKCXZt8afuLqx8z7-1" value="&lt;font style=&quot;font-size: 24px;&quot;&gt;Data Flow Diagram&lt;/font&gt;" style="rounded=0;whiteSpace=wrap;html=1;fillColor=none;strokeColor=none;" vertex="1" parent="1">
          <mxGeometry x="20" y="20" width="260" height="40" as="geometry" />
        </mxCell>
        <mxCell id="2jRSJKCXZt8afuLqx8z7-2" value="" style="rounded=0;whiteSpace=wrap;html=1;fillColor=none;strokeColor=default;dashed=1;" vertex="1" parent="1">
          <mxGeometry x="40" y="160" width="120" height="320" as="geometry" />
        </mxCell>
        <mxCell id="2jRSJKCXZt8afuLqx8z7-23" style="edgeStyle=orthogonalEdgeStyle;rounded=0;orthogonalLoop=1;jettySize=auto;html=1;entryX=0;entryY=0.5;entryDx=0;entryDy=0;" edge="1" parent="1" source="2jRSJKCXZt8afuLqx8z7-3" target="2jRSJKCXZt8afuLqx8z7-12">
          <mxGeometry relative="1" as="geometry">
            <Array as="points">
              <mxPoint x="150" y="278" />
              <mxPoint x="150" y="315" />
            </Array>
          </mxGeometry>
        </mxCell>
        <mxCell id="2jRSJKCXZt8afuLqx8z7-3" value="" style="image;aspect=fixed;html=1;points=[];align=center;fontSize=12;image=img/lib/azure2/general/Folder_Blank.svg;" vertex="1" parent="1">
          <mxGeometry x="74.75" y="259.59" width="45" height="36.53" as="geometry" />
        </mxCell>
        <mxCell id="2jRSJKCXZt8afuLqx8z7-25" style="edgeStyle=orthogonalEdgeStyle;rounded=0;orthogonalLoop=1;jettySize=auto;html=1;entryX=0;entryY=0.5;entryDx=0;entryDy=0;" edge="1" parent="1" source="2jRSJKCXZt8afuLqx8z7-4" target="2jRSJKCXZt8afuLqx8z7-13">
          <mxGeometry relative="1" as="geometry">
            <Array as="points">
              <mxPoint x="150" y="418" />
              <mxPoint x="150" y="376" />
            </Array>
          </mxGeometry>
        </mxCell>
        <mxCell id="2jRSJKCXZt8afuLqx8z7-26" style="edgeStyle=orthogonalEdgeStyle;rounded=0;orthogonalLoop=1;jettySize=auto;html=1;entryX=0;entryY=0.5;entryDx=0;entryDy=0;" edge="1" parent="1" source="2jRSJKCXZt8afuLqx8z7-4" target="2jRSJKCXZt8afuLqx8z7-15">
          <mxGeometry relative="1" as="geometry">
            <Array as="points">
              <mxPoint x="150" y="418" />
              <mxPoint x="150" y="455" />
            </Array>
          </mxGeometry>
        </mxCell>
        <mxCell id="2jRSJKCXZt8afuLqx8z7-4" value="" style="image;aspect=fixed;html=1;points=[];align=center;fontSize=12;image=img/lib/azure2/general/Folder_Blank.svg;" vertex="1" parent="1">
          <mxGeometry x="77.75" y="400" width="44.5" height="36.12" as="geometry" />
        </mxCell>
        <mxCell id="2jRSJKCXZt8afuLqx8z7-5" value="" style="rounded=1;whiteSpace=wrap;html=1;fillColor=none;strokeColor=#d6b656;" vertex="1" parent="1">
          <mxGeometry x="190" y="200" width="120" height="280" as="geometry" />
        </mxCell>
        <mxCell id="2jRSJKCXZt8afuLqx8z7-6" value="Bronze Layer" style="rounded=1;whiteSpace=wrap;html=1;fillColor=#fff2cc;strokeColor=#d6b656;" vertex="1" parent="1">
          <mxGeometry x="190" y="160" width="120" height="30" as="geometry" />
        </mxCell>
        <mxCell id="2jRSJKCXZt8afuLqx8z7-7" value="Sources" style="rounded=0;whiteSpace=wrap;html=1;fillColor=default;strokeColor=none;" vertex="1" parent="1">
          <mxGeometry x="60" y="150" width="80" height="20" as="geometry" />
        </mxCell>
        <mxCell id="2jRSJKCXZt8afuLqx8z7-8" value="&lt;font style=&quot;font-size: 10px;&quot;&gt;CRM&lt;/font&gt;" style="rounded=0;whiteSpace=wrap;html=1;fillColor=none;strokeColor=none;" vertex="1" parent="1">
          <mxGeometry x="72.25" y="296.12" width="50" height="20" as="geometry" />
        </mxCell>
        <mxCell id="2jRSJKCXZt8afuLqx8z7-9" value="&lt;font style=&quot;font-size: 10px;&quot;&gt;ERP&lt;/font&gt;" style="rounded=0;whiteSpace=wrap;html=1;fillColor=none;strokeColor=none;" vertex="1" parent="1">
          <mxGeometry x="75" y="436.12" width="50" height="20" as="geometry" />
        </mxCell>
        <mxCell id="2jRSJKCXZt8afuLqx8z7-35" style="edgeStyle=orthogonalEdgeStyle;rounded=0;orthogonalLoop=1;jettySize=auto;html=1;" edge="1" parent="1" source="2jRSJKCXZt8afuLqx8z7-10" target="2jRSJKCXZt8afuLqx8z7-29">
          <mxGeometry relative="1" as="geometry" />
        </mxCell>
        <mxCell id="2jRSJKCXZt8afuLqx8z7-10" value="crm_sales_details" style="rounded=1;whiteSpace=wrap;html=1;fillColor=#fff2cc;strokeColor=#d6b656;" vertex="1" parent="1">
          <mxGeometry x="195" y="220" width="110" height="30" as="geometry" />
        </mxCell>
        <mxCell id="2jRSJKCXZt8afuLqx8z7-36" style="edgeStyle=orthogonalEdgeStyle;rounded=0;orthogonalLoop=1;jettySize=auto;html=1;" edge="1" parent="1" source="2jRSJKCXZt8afuLqx8z7-11" target="2jRSJKCXZt8afuLqx8z7-30">
          <mxGeometry relative="1" as="geometry" />
        </mxCell>
        <mxCell id="2jRSJKCXZt8afuLqx8z7-11" value="crm_cust_info" style="rounded=1;whiteSpace=wrap;html=1;fillColor=#fff2cc;strokeColor=#d6b656;" vertex="1" parent="1">
          <mxGeometry x="195" y="260" width="110" height="30" as="geometry" />
        </mxCell>
        <mxCell id="2jRSJKCXZt8afuLqx8z7-37" style="edgeStyle=orthogonalEdgeStyle;rounded=0;orthogonalLoop=1;jettySize=auto;html=1;" edge="1" parent="1" source="2jRSJKCXZt8afuLqx8z7-12" target="2jRSJKCXZt8afuLqx8z7-31">
          <mxGeometry relative="1" as="geometry" />
        </mxCell>
        <mxCell id="2jRSJKCXZt8afuLqx8z7-12" value="crm_prd_info" style="rounded=1;whiteSpace=wrap;html=1;fillColor=#fff2cc;strokeColor=#d6b656;" vertex="1" parent="1">
          <mxGeometry x="195" y="300" width="110" height="30" as="geometry" />
        </mxCell>
        <mxCell id="2jRSJKCXZt8afuLqx8z7-38" style="edgeStyle=orthogonalEdgeStyle;rounded=0;orthogonalLoop=1;jettySize=auto;html=1;" edge="1" parent="1" source="2jRSJKCXZt8afuLqx8z7-13" target="2jRSJKCXZt8afuLqx8z7-32">
          <mxGeometry relative="1" as="geometry" />
        </mxCell>
        <mxCell id="2jRSJKCXZt8afuLqx8z7-13" value="erp_cust_az12" style="rounded=1;whiteSpace=wrap;html=1;fillColor=#fff2cc;strokeColor=#d6b656;" vertex="1" parent="1">
          <mxGeometry x="195" y="361.12" width="110" height="30" as="geometry" />
        </mxCell>
        <mxCell id="2jRSJKCXZt8afuLqx8z7-39" style="edgeStyle=orthogonalEdgeStyle;rounded=0;orthogonalLoop=1;jettySize=auto;html=1;" edge="1" parent="1" source="2jRSJKCXZt8afuLqx8z7-14" target="2jRSJKCXZt8afuLqx8z7-33">
          <mxGeometry relative="1" as="geometry" />
        </mxCell>
        <mxCell id="2jRSJKCXZt8afuLqx8z7-14" value="erp_loc_a101" style="rounded=1;whiteSpace=wrap;html=1;fillColor=#fff2cc;strokeColor=#d6b656;" vertex="1" parent="1">
          <mxGeometry x="195" y="400" width="110" height="30" as="geometry" />
        </mxCell>
        <mxCell id="2jRSJKCXZt8afuLqx8z7-40" style="edgeStyle=orthogonalEdgeStyle;rounded=0;orthogonalLoop=1;jettySize=auto;html=1;" edge="1" parent="1" source="2jRSJKCXZt8afuLqx8z7-15" target="2jRSJKCXZt8afuLqx8z7-34">
          <mxGeometry relative="1" as="geometry" />
        </mxCell>
        <mxCell id="2jRSJKCXZt8afuLqx8z7-15" value="erp_px_cat_g1v2" style="rounded=1;whiteSpace=wrap;html=1;fillColor=#fff2cc;strokeColor=#d6b656;" vertex="1" parent="1">
          <mxGeometry x="195" y="440" width="110" height="30" as="geometry" />
        </mxCell>
        <mxCell id="2jRSJKCXZt8afuLqx8z7-21" style="edgeStyle=orthogonalEdgeStyle;rounded=0;orthogonalLoop=1;jettySize=auto;html=1;entryX=-0.001;entryY=0.597;entryDx=0;entryDy=0;entryPerimeter=0;" edge="1" parent="1" source="2jRSJKCXZt8afuLqx8z7-3" target="2jRSJKCXZt8afuLqx8z7-11">
          <mxGeometry relative="1" as="geometry" />
        </mxCell>
        <mxCell id="2jRSJKCXZt8afuLqx8z7-22" style="edgeStyle=orthogonalEdgeStyle;rounded=0;orthogonalLoop=1;jettySize=auto;html=1;entryX=0.004;entryY=0.455;entryDx=0;entryDy=0;entryPerimeter=0;" edge="1" parent="1" source="2jRSJKCXZt8afuLqx8z7-3" target="2jRSJKCXZt8afuLqx8z7-10">
          <mxGeometry relative="1" as="geometry">
            <Array as="points">
              <mxPoint x="150" y="278" />
              <mxPoint x="150" y="234" />
            </Array>
          </mxGeometry>
        </mxCell>
        <mxCell id="2jRSJKCXZt8afuLqx8z7-24" style="edgeStyle=orthogonalEdgeStyle;rounded=0;orthogonalLoop=1;jettySize=auto;html=1;entryX=0.012;entryY=0.611;entryDx=0;entryDy=0;entryPerimeter=0;" edge="1" parent="1" source="2jRSJKCXZt8afuLqx8z7-4" target="2jRSJKCXZt8afuLqx8z7-14">
          <mxGeometry relative="1" as="geometry" />
        </mxCell>
        <mxCell id="2jRSJKCXZt8afuLqx8z7-27" value="" style="rounded=1;whiteSpace=wrap;html=1;fillColor=none;strokeColor=#666666;fontColor=#333333;" vertex="1" parent="1">
          <mxGeometry x="380" y="200" width="120" height="280" as="geometry" />
        </mxCell>
        <mxCell id="2jRSJKCXZt8afuLqx8z7-28" value="Bronze Layer" style="rounded=1;whiteSpace=wrap;html=1;fillColor=#f5f5f5;strokeColor=#666666;fontColor=#333333;" vertex="1" parent="1">
          <mxGeometry x="380" y="160" width="120" height="30" as="geometry" />
        </mxCell>
        <mxCell id="2jRSJKCXZt8afuLqx8z7-29" value="crm_sales_details" style="rounded=1;whiteSpace=wrap;html=1;fillColor=#f5f5f5;strokeColor=#666666;fontColor=#333333;" vertex="1" parent="1">
          <mxGeometry x="385" y="220" width="110" height="30" as="geometry" />
        </mxCell>
        <mxCell id="2jRSJKCXZt8afuLqx8z7-30" value="crm_cust_info" style="rounded=1;whiteSpace=wrap;html=1;fillColor=#f5f5f5;strokeColor=#666666;fontColor=#333333;" vertex="1" parent="1">
          <mxGeometry x="385" y="260" width="110" height="30" as="geometry" />
        </mxCell>
        <mxCell id="2jRSJKCXZt8afuLqx8z7-31" value="crm_prd_info" style="rounded=1;whiteSpace=wrap;html=1;fillColor=#f5f5f5;strokeColor=#666666;fontColor=#333333;" vertex="1" parent="1">
          <mxGeometry x="385" y="300" width="110" height="30" as="geometry" />
        </mxCell>
        <mxCell id="2jRSJKCXZt8afuLqx8z7-32" value="erp_cust_az12" style="rounded=1;whiteSpace=wrap;html=1;fillColor=#f5f5f5;strokeColor=#666666;fontColor=#333333;" vertex="1" parent="1">
          <mxGeometry x="385" y="361.12" width="110" height="30" as="geometry" />
        </mxCell>
        <mxCell id="2jRSJKCXZt8afuLqx8z7-33" value="erp_loc_a101" style="rounded=1;whiteSpace=wrap;html=1;fillColor=#f5f5f5;strokeColor=#666666;fontColor=#333333;" vertex="1" parent="1">
          <mxGeometry x="385" y="400" width="110" height="30" as="geometry" />
        </mxCell>
        <mxCell id="2jRSJKCXZt8afuLqx8z7-34" value="erp_px_cat_g1v2" style="rounded=1;whiteSpace=wrap;html=1;fillColor=#f5f5f5;strokeColor=#666666;fontColor=#333333;" vertex="1" parent="1">
          <mxGeometry x="385" y="440" width="110" height="30" as="geometry" />
        </mxCell>
        <mxCell id="2jRSJKCXZt8afuLqx8z7-41" value="" style="rounded=1;whiteSpace=wrap;html=1;fillColor=none;strokeColor=#b85450;" vertex="1" parent="1">
          <mxGeometry x="580" y="200" width="120" height="280" as="geometry" />
        </mxCell>
        <mxCell id="2jRSJKCXZt8afuLqx8z7-42" value="Bronze Layer" style="rounded=1;whiteSpace=wrap;html=1;fillColor=#f8cecc;strokeColor=#b85450;" vertex="1" parent="1">
          <mxGeometry x="580" y="160" width="120" height="30" as="geometry" />
        </mxCell>
        <mxCell id="2jRSJKCXZt8afuLqx8z7-43" value="fact_sales" style="rounded=1;whiteSpace=wrap;html=1;fillColor=#f8cecc;strokeColor=#b85450;" vertex="1" parent="1">
          <mxGeometry x="585" y="260" width="110" height="30" as="geometry" />
        </mxCell>
        <mxCell id="2jRSJKCXZt8afuLqx8z7-44" value="dim_customers" style="rounded=1;whiteSpace=wrap;html=1;fillColor=#f8cecc;strokeColor=#b85450;" vertex="1" parent="1">
          <mxGeometry x="585" y="325" width="110" height="30" as="geometry" />
        </mxCell>
        <mxCell id="2jRSJKCXZt8afuLqx8z7-45" value="dim_products" style="rounded=1;whiteSpace=wrap;html=1;fillColor=#f8cecc;strokeColor=#b85450;" vertex="1" parent="1">
          <mxGeometry x="585" y="391.12" width="110" height="30" as="geometry" />
        </mxCell>
        <mxCell id="2jRSJKCXZt8afuLqx8z7-50" value="" style="endArrow=classic;html=1;rounded=0;jumpStyle=gap;" edge="1" parent="1" source="2jRSJKCXZt8afuLqx8z7-29" target="2jRSJKCXZt8afuLqx8z7-43">
          <mxGeometry width="50" height="50" relative="1" as="geometry">
            <mxPoint x="480" y="270" as="sourcePoint" />
            <mxPoint x="530" y="220" as="targetPoint" />
          </mxGeometry>
        </mxCell>
        <mxCell id="2jRSJKCXZt8afuLqx8z7-52" value="" style="endArrow=classic;html=1;rounded=0;entryX=0;entryY=0.5;entryDx=0;entryDy=0;jumpStyle=gap;" edge="1" parent="1" source="2jRSJKCXZt8afuLqx8z7-32" target="2jRSJKCXZt8afuLqx8z7-44">
          <mxGeometry width="50" height="50" relative="1" as="geometry">
            <mxPoint x="490" y="290" as="sourcePoint" />
            <mxPoint x="580" y="308" as="targetPoint" />
          </mxGeometry>
        </mxCell>
        <mxCell id="2jRSJKCXZt8afuLqx8z7-53" value="" style="endArrow=classic;html=1;rounded=0;entryX=0;entryY=0.75;entryDx=0;entryDy=0;exitX=1;exitY=0;exitDx=0;exitDy=0;jumpStyle=gap;" edge="1" parent="1" source="2jRSJKCXZt8afuLqx8z7-33" target="2jRSJKCXZt8afuLqx8z7-44">
          <mxGeometry width="50" height="50" relative="1" as="geometry">
            <mxPoint x="500" y="390.7" as="sourcePoint" />
            <mxPoint x="590" y="368.7" as="targetPoint" />
          </mxGeometry>
        </mxCell>
        <mxCell id="2jRSJKCXZt8afuLqx8z7-54" value="" style="endArrow=classic;html=1;rounded=0;entryX=0;entryY=0.25;entryDx=0;entryDy=0;exitX=1;exitY=0.75;exitDx=0;exitDy=0;jumpStyle=gap;" edge="1" parent="1" source="2jRSJKCXZt8afuLqx8z7-30" target="2jRSJKCXZt8afuLqx8z7-44">
          <mxGeometry width="50" height="50" relative="1" as="geometry">
            <mxPoint x="495" y="324.58" as="sourcePoint" />
            <mxPoint x="585" y="302.58" as="targetPoint" />
          </mxGeometry>
        </mxCell>
        <mxCell id="2jRSJKCXZt8afuLqx8z7-55" value="" style="endArrow=classic;html=1;rounded=0;entryX=0;entryY=0.25;entryDx=0;entryDy=0;exitX=1;exitY=0.5;exitDx=0;exitDy=0;jumpStyle=gap;" edge="1" parent="1" source="2jRSJKCXZt8afuLqx8z7-31" target="2jRSJKCXZt8afuLqx8z7-45">
          <mxGeometry width="50" height="50" relative="1" as="geometry">
            <mxPoint x="490" y="361.62" as="sourcePoint" />
            <mxPoint x="580" y="411.62" as="targetPoint" />
          </mxGeometry>
        </mxCell>
        <mxCell id="2jRSJKCXZt8afuLqx8z7-57" value="" style="endArrow=classic;html=1;rounded=0;entryX=0;entryY=0.75;entryDx=0;entryDy=0;exitX=1;exitY=0.5;exitDx=0;exitDy=0;jumpStyle=gap;" edge="1" parent="1" source="2jRSJKCXZt8afuLqx8z7-34" target="2jRSJKCXZt8afuLqx8z7-45">
          <mxGeometry width="50" height="50" relative="1" as="geometry">
            <mxPoint x="490" y="352.5" as="sourcePoint" />
            <mxPoint x="580" y="436.5" as="targetPoint" />
          </mxGeometry>
        </mxCell>
      </root>
    </mxGraphModel>
  </diagram>
</mxfile>
